HIERARCHY
ROOT mixamorig:Hips
{
	OFFSET 0.000000 201.639420 0.000000
	CHANNELS 6 Xposition Yposition Zposition Xrotation Yrotation Zrotation
	JOINT mixamorig:Spine
	{
		OFFSET 0.006200 19.524994 -2.481800
		CHANNELS 3 Xrotation Yrotation Zrotation
		JOINT mixamorig:Spine1
		{
			OFFSET -0.000900 22.835007 -2.825400
			CHANNELS 3 Xrotation Yrotation Zrotation
			JOINT mixamorig:Spine2
			{
				OFFSET -0.020600 26.552490 -3.193300
				CHANNELS 3 Xrotation Yrotation Zrotation
				JOINT mixamorig:Neck
				{
					OFFSET -0.060000 30.701813 1.352200
					CHANNELS 3 Xrotation Yrotation Zrotation
					JOINT mixamorig:Head
					{
						OFFSET -0.087200 22.547607 3.670900
						CHANNELS 3 Xrotation Yrotation Zrotation
						JOINT mixamorig:HeadTop_End
						{
							OFFSET -0.830600 40.355194 7.893500
							CHANNELS 3 Xrotation Yrotation Zrotation
							End Site
							{
								OFFSET 0.000000 30.592346 0.000000
							}
						}
						JOINT mixamorig:RightEye
						{
							OFFSET -6.302100 18.118591 16.197100
							CHANNELS 3 Xrotation Yrotation Zrotation
							End Site
							{
								OFFSET 0.000000 30.592346 0.000000
							}
						}
						JOINT mixamorig:LeftEye
						{
							OFFSET 6.741500 18.382690 16.401899
							CHANNELS 3 Xrotation Yrotation Zrotation
							End Site
							{
								OFFSET 0.000000 30.592346 0.000000
							}
						}
					}
				}
				JOINT mixamorig:LeftShoulder
				{
					OFFSET 11.924900 18.230499 1.425400
					CHANNELS 3 Xrotation Yrotation Zrotation
					JOINT mixamorig:LeftArm
					{
						OFFSET 25.435989 -0.697632 -5.229300
						CHANNELS 3 Xrotation Yrotation Zrotation
						JOINT mixamorig:LeftForeArm
						{
							OFFSET 54.684776 0.000000 0.000000
							CHANNELS 3 Xrotation Yrotation Zrotation
							JOINT mixamorig:LeftHand
							{
								OFFSET 55.098175 0.000000 0.000000
								CHANNELS 3 Xrotation Yrotation Zrotation
								JOINT mixamorig:LeftHandMiddle1
								{
									OFFSET 23.369751 0.000000 0.000000
									CHANNELS 3 Xrotation Yrotation Zrotation
									JOINT mixamorig:LeftHandMiddle2
									{
										OFFSET 6.378677 0.000000 0.000000
										CHANNELS 3 Xrotation Yrotation Zrotation
										JOINT mixamorig:LeftHandMiddle3
										{
											OFFSET 6.148331 0.000000 0.000000
											CHANNELS 3 Xrotation Yrotation Zrotation
											JOINT mixamorig:LeftHandMiddle4
											{
												OFFSET 6.582504 0.000000 0.000000
												CHANNELS 3 Xrotation Yrotation Zrotation
												End Site
												{
													OFFSET -1.168900 6.395691 1.028606
												}
											}
										}
									}
								}
								JOINT mixamorig:LeftHandThumb1
								{
									OFFSET 7.235672 -3.848206 5.434273
									CHANNELS 3 Xrotation Yrotation Zrotation
									JOINT mixamorig:LeftHandThumb2
									{
										OFFSET 6.568451 -3.792297 3.792300
										CHANNELS 3 Xrotation Yrotation Zrotation
										JOINT mixamorig:LeftHandThumb3
										{
											OFFSET 6.063080 -3.500519 3.500518
											CHANNELS 3 Xrotation Yrotation Zrotation
											JOINT mixamorig:LeftHandThumb4
											{
												OFFSET 4.793182 -2.767334 2.767349
												CHANNELS 3 Xrotation Yrotation Zrotation
												End Site
												{
													OFFSET 0.101639 6.054260 1.275483
												}
											}
										}
									}
								}
								JOINT mixamorig:LeftHandIndex1
								{
									OFFSET 23.101074 -0.309540 4.992809
									CHANNELS 3 Xrotation Yrotation Zrotation
									JOINT mixamorig:LeftHandIndex2
									{
										OFFSET 6.226883 0.000000 0.000000
										CHANNELS 3 Xrotation Yrotation Zrotation
										JOINT mixamorig:LeftHandIndex3
										{
											OFFSET 6.094330 0.000000 0.000000
											CHANNELS 3 Xrotation Yrotation Zrotation
											JOINT mixamorig:LeftHandIndex4
											{
												OFFSET 5.482605 0.000000 0.000000
												CHANNELS 3 Xrotation Yrotation Zrotation
												End Site
												{
													OFFSET -1.427902 5.233032 0.797164
												}
											}
										}
									}
								}
								JOINT mixamorig:LeftHandRing1
								{
									OFFSET 22.299240 0.021149 -3.964172
									CHANNELS 3 Xrotation Yrotation Zrotation
									JOINT mixamorig:LeftHandRing2
									{
										OFFSET 6.321869 0.000000 0.000000
										CHANNELS 3 Xrotation Yrotation Zrotation
										JOINT mixamorig:LeftHandRing3
										{
											OFFSET 5.899796 0.000000 0.000000
											CHANNELS 3 Xrotation Yrotation Zrotation
											JOINT mixamorig:LeftHandRing4
											{
												OFFSET 6.517899 0.000000 0.000000
												CHANNELS 3 Xrotation Yrotation Zrotation
												End Site
												{
													OFFSET -1.637299 6.232208 0.980890
												}
											}
										}
									}
								}
								JOINT mixamorig:LeftHandPinky1
								{
									OFFSET 20.463791 -0.302338 -8.562233
									CHANNELS 3 Xrotation Yrotation Zrotation
									JOINT mixamorig:LeftHandPinky2
									{
										OFFSET 6.908646 0.000000 0.000000
										CHANNELS 3 Xrotation Yrotation Zrotation
										JOINT mixamorig:LeftHandPinky3
										{
											OFFSET 4.622849 0.000000 0.000000
											CHANNELS 3 Xrotation Yrotation Zrotation
											JOINT mixamorig:LeftHandPinky4
											{
												OFFSET 5.216080 0.000000 0.000000
												CHANNELS 3 Xrotation Yrotation Zrotation
												End Site
												{
													OFFSET -0.606308 5.116241 0.814926
												}
											}
										}
									}
								}
							}
						}
					}
				}
				JOINT mixamorig:RightShoulder
				{
					OFFSET -12.001300 18.284088 1.348900
					CHANNELS 3 Xrotation Yrotation Zrotation
					JOINT mixamorig:RightArm
					{
						OFFSET -25.308500 -0.751312 -5.164599
						CHANNELS 3 Xrotation Yrotation Zrotation
						JOINT mixamorig:RightForeArm
						{
							OFFSET -54.684429 0.000000 0.000000
							CHANNELS 3 Xrotation Yrotation Zrotation
							JOINT mixamorig:RightHand
							{
								OFFSET -55.150291 0.000000 0.000000
								CHANNELS 3 Xrotation Yrotation Zrotation
								JOINT mixamorig:RightHandMiddle1
								{
									OFFSET -23.317566 0.000000 0.000000
									CHANNELS 3 Xrotation Yrotation Zrotation
									JOINT mixamorig:RightHandMiddle2
									{
										OFFSET -6.378403 0.000000 0.000000
										CHANNELS 3 Xrotation Yrotation Zrotation
										JOINT mixamorig:RightHandMiddle3
										{
											OFFSET -6.148193 0.000000 0.000000
											CHANNELS 3 Xrotation Yrotation Zrotation
											JOINT mixamorig:RightHandMiddle4
											{
												OFFSET -6.583389 0.000000 0.000000
												CHANNELS 3 Xrotation Yrotation Zrotation
												End Site
												{
													OFFSET 1.171692 6.395905 1.029786
												}
											}
										}
									}
								}
								JOINT mixamorig:RightHandThumb1
								{
									OFFSET -7.190521 -3.860474 5.435846
									CHANNELS 3 Xrotation Yrotation Zrotation
									JOINT mixamorig:RightHandThumb2
									{
										OFFSET -6.567429 -3.791718 3.791708
										CHANNELS 3 Xrotation Yrotation Zrotation
										JOINT mixamorig:RightHandThumb3
										{
											OFFSET -6.062469 -3.500153 3.500166
											CHANNELS 3 Xrotation Yrotation Zrotation
											JOINT mixamorig:RightHandThumb4
											{
												OFFSET -4.792618 -2.767029 2.767022
												CHANNELS 3 Xrotation Yrotation Zrotation
												End Site
												{
													OFFSET -0.100327 6.053253 1.276754
												}
											}
										}
									}
								}
								JOINT mixamorig:RightHandIndex1
								{
									OFFSET -23.048981 -0.310791 4.992554
									CHANNELS 3 Xrotation Yrotation Zrotation
									JOINT mixamorig:RightHandIndex2
									{
										OFFSET -6.227539 0.000000 0.000000
										CHANNELS 3 Xrotation Yrotation Zrotation
										JOINT mixamorig:RightHandIndex3
										{
											OFFSET -6.095047 0.000000 0.000000
											CHANNELS 3 Xrotation Yrotation Zrotation
											JOINT mixamorig:RightHandIndex4
											{
												OFFSET -5.484772 0.000000 0.000000
												CHANNELS 3 Xrotation Yrotation Zrotation
												End Site
												{
													OFFSET 1.420593 5.237305 0.797056
												}
											}
										}
									}
								}
								JOINT mixamorig:RightHandRing1
								{
									OFFSET -22.246323 0.020569 -3.963762
									CHANNELS 3 Xrotation Yrotation Zrotation
									JOINT mixamorig:RightHandRing2
									{
										OFFSET -6.322128 0.000000 0.000000
										CHANNELS 3 Xrotation Yrotation Zrotation
										JOINT mixamorig:RightHandRing3
										{
											OFFSET -5.900024 0.000000 0.000000
											CHANNELS 3 Xrotation Yrotation Zrotation
											JOINT mixamorig:RightHandRing4
											{
												OFFSET -6.518356 0.000000 0.000000
												CHANNELS 3 Xrotation Yrotation Zrotation
												End Site
												{
													OFFSET 1.636398 6.232697 0.982186
												}
											}
										}
									}
								}
								JOINT mixamorig:RightHandPinky1
								{
									OFFSET -20.411011 -0.303314 -8.561701
									CHANNELS 3 Xrotation Yrotation Zrotation
									JOINT mixamorig:RightHandPinky2
									{
										OFFSET -6.907349 0.000000 0.000000
										CHANNELS 3 Xrotation Yrotation Zrotation
										JOINT mixamorig:RightHandPinky3
										{
											OFFSET -4.623840 0.000000 0.000000
											CHANNELS 3 Xrotation Yrotation Zrotation
											JOINT mixamorig:RightHandPinky4
											{
												OFFSET -5.218353 0.000000 0.000000
												CHANNELS 3 Xrotation Yrotation Zrotation
												End Site
												{
													OFFSET 0.602097 5.118835 0.816273
												}
											}
										}
									}
								}
							}
						}
					}
				}
			}
		}
	}
	JOINT mixamorig:LeftUpLeg
	{
		OFFSET 18.168400 -13.561905 -0.039000
		CHANNELS 3 Xrotation Yrotation Zrotation
		JOINT mixamorig:LeftLeg
		{
			OFFSET 0.577358 -80.825211 -3.695000
			CHANNELS 3 Xrotation Yrotation Zrotation
			JOINT mixamorig:LeftFoot
			{
				OFFSET -0.577356 -83.370262 -6.520700
				CHANNELS 3 Xrotation Yrotation Zrotation
				JOINT mixamorig:LeftToeBase
				{
					OFFSET 0.750401 -20.798306 25.135401
					CHANNELS 3 Xrotation Yrotation Zrotation
					JOINT mixamorig:LeftToe_End
					{
						OFFSET -0.000500 0.001200 19.917799
						CHANNELS 3 Xrotation Yrotation Zrotation
						End Site
						{
							OFFSET 0.000000 19.917805 0.000000
						}
					}
				}
			}
		}
	}
	JOINT mixamorig:RightUpLeg
	{
		OFFSET -18.162500 -13.585098 -0.041000
		CHANNELS 3 Xrotation Yrotation Zrotation
		JOINT mixamorig:RightLeg
		{
			OFFSET -0.595024 -80.945297 -3.631900
			CHANNELS 3 Xrotation Yrotation Zrotation
			JOINT mixamorig:RightFoot
			{
				OFFSET 0.595024 -83.218193 -6.561200
				CHANNELS 3 Xrotation Yrotation Zrotation
				JOINT mixamorig:RightToeBase
				{
					OFFSET -0.753601 -20.807106 25.115000
					CHANNELS 3 Xrotation Yrotation Zrotation
					JOINT mixamorig:RightToe_End
					{
						OFFSET 0.000299 0.001700 19.918200
						CHANNELS 3 Xrotation Yrotation Zrotation
						End Site
						{
							OFFSET 0.000000 19.918203 0.000000
						}
					}
				}
			}
		}
	}
}
MOTION
Frames: 4
Frame Time: 0.033333
2.975544 119.944305 -2.124073 -0.344785 4.555143 -9.540863 3.950583 3.763437 -1.701736 8.115227 6.854083 -4.611599 8.115219 6.854081 -4.611590 -3.894036 28.384528 6.949318 6.058531 35.625973 -22.329902 -0.000000 0.000000 0.000000 -0.000000 0.000000 0.000000 -0.000000 0.000000 0.000000 0.982981 -15.541356 -11.895320 2.965898 -0.975604 -32.060915 39.955575 -32.910580 -2.104571 12.745301 10.287336 2.740131 1.294499 -1.113010 -9.320917 -0.178483 -0.773446 -14.430089 0.000003 0.000010 0.000000 -0.000003 0.000001 -0.000002 -10.172278 -9.653909 9.008307 2.321128 6.714514 2.170902 0.000011 0.000000 -0.000003 -0.000001 0.000001 0.000001 -0.828614 -6.612130 -6.414595 -0.126830 0.207662 -21.714380 -0.000002 -0.000004 0.000009 -0.000001 0.000001 -0.000000 -0.564469 2.847571 -6.300949 -0.505488 -2.597469 -30.199494 0.000005 -0.000006 -0.000005 -0.000004 0.000001 -0.000001 -0.248480 5.894453 -1.053946 -0.699254 -5.770476 -39.699290 -0.000007 -0.000006 -0.000005 0.000003 0.000001 -0.000002 3.299740 -18.345026 12.110456 12.768931 -13.198097 60.241394 30.218249 39.297603 -4.016844 19.086214 -1.501094 11.733836 -0.085934 -1.307462 0.995306 -0.357889 1.142264 22.116024 -0.000008 -0.000000 -0.000005 0.000003 0.000000 -0.000003 -7.041340 1.762626 -10.274677 -0.642339 -0.093875 -1.289327 0.000003 -0.000004 -0.000007 0.000002 0.000000 0.000001 -3.280175 2.555628 5.448237 0.120546 -1.119630 16.859794 0.000011 0.000001 0.000011 -0.000002 0.000001 -0.000000 1.946341 0.242904 1.016103 -0.619903 3.110103 28.344756 0.000005 0.000005 0.000004 0.000003 -0.000001 0.000001 4.839137 -1.854400 -3.961738 -1.320397 7.677271 37.620194 -0.000005 0.000006 -0.000003 -0.000003 -0.000001 0.000001 -81.679869 -12.169120 13.553962 115.210784 8.749633 3.500118 -30.950504 3.853605 -11.889291 -0.904662 1.148346 1.376340 0.000000 0.000001 0.000000 -63.176989 9.659787 -23.061333 105.683018 -1.208493 -0.955706 -24.919078 -7.478342 26.361930 -9.247646 -3.096585 -0.190632 -0.000000 -0.000002 -0.000000 
2.976166 119.942093 -2.101457 -0.294226 4.558248 -9.568172 3.930481 3.763658 -1.701846 8.075123 6.853905 -4.612889 8.075119 6.853910 -4.612888 -3.925062 28.376673 6.958237 6.143539 35.639579 -22.329739 0.000002 0.000000 -0.000000 0.000002 0.000000 -0.000000 0.000002 0.000000 -0.000000 0.985507 -15.558934 -11.899337 3.003088 -0.913841 -31.997056 40.016528 -32.998222 -2.121978 12.751311 10.346625 2.756596 1.294508 -1.112945 -9.320126 -0.178481 -0.773446 -14.430086 -0.000003 0.000009 0.000001 -0.000004 0.000000 -0.000000 -10.173229 -9.651247 9.009507 2.321129 6.714515 2.170899 0.000015 -0.000001 -0.000004 -0.000002 -0.000000 0.000001 -0.838426 -6.669845 -6.406875 -0.126832 0.207662 -21.714384 0.000004 -0.000003 0.000006 -0.000003 0.000001 -0.000002 -0.562653 2.847236 -6.298598 -0.505492 -2.597469 -30.199490 0.000004 -0.000004 -0.000008 0.000001 0.000001 -0.000001 -0.247916 5.893333 -1.052756 -0.699254 -5.770477 -39.699290 -0.000002 -0.000004 -0.000005 0.000002 -0.000002 0.000001 3.306624 -18.371375 12.069623 12.769761 -13.150436 60.289212 30.289908 39.220278 -4.043904 19.162132 -1.502706 11.706721 0.125412 -1.270045 1.027000 -0.357887 1.142265 22.116026 -0.000007 -0.000004 -0.000002 -0.000001 0.000001 -0.000001 -7.056318 1.818830 -10.263613 -0.642332 -0.093878 -1.289328 0.000000 -0.000005 -0.000004 0.000001 -0.000001 0.000000 -3.152904 2.648917 5.393168 0.120547 -1.119629 16.859793 0.000005 0.000004 0.000011 0.000005 0.000000 -0.000001 1.946792 0.243255 1.017455 -0.619908 3.110103 28.344752 0.000008 0.000004 0.000003 0.000000 -0.000000 0.000000 4.838680 -1.853956 -3.961024 -1.320397 7.677272 37.620190 -0.000007 0.000005 -0.000004 -0.000002 0.000002 -0.000002 -81.739797 -12.174329 13.591006 115.221057 8.711204 3.497336 -30.965520 3.834217 -11.851634 -0.902875 1.147222 1.373612 -0.000000 0.000000 -0.000000 -63.212970 9.635543 -23.047778 105.687479 -1.226332 -0.949993 -24.943865 -7.480043 26.353182 -9.246667 -3.090849 -0.187952 -0.000000 0.000001 0.000000 
2.980284 119.932037 -2.079681 -0.255996 4.564834 -9.574671 3.917635 3.763250 -1.711010 8.049894 6.852345 -4.630617 8.049888 6.852351 -4.630607 -3.956229 28.371820 6.989448 6.229249 35.651378 -22.352714 -0.000002 -0.000000 -0.000000 -0.000002 -0.000000 -0.000000 -0.000002 -0.000000 -0.000000 0.994530 -15.576586 -11.870967 3.023591 -0.847038 -31.927238 40.033047 -33.111630 -2.139811 12.724928 10.403898 2.731364 1.294541 -1.112831 -9.318718 -0.178484 -0.773446 -14.430086 -0.000002 0.000010 0.000001 0.000002 0.000000 0.000002 -10.174112 -9.648933 9.010719 2.321127 6.714516 2.170902 0.000015 -0.000001 -0.000002 -0.000002 -0.000000 0.000001 -0.848904 -6.730143 -6.398691 -0.126831 0.207663 -21.714382 -0.000001 -0.000004 0.000008 -0.000001 -0.000001 -0.000001 -0.560665 2.846857 -6.296082 -0.505493 -2.597469 -30.199494 0.000002 -0.000006 -0.000005 0.000002 -0.000000 0.000002 -0.247241 5.892179 -1.050657 -0.699254 -5.770476 -39.699290 -0.000007 -0.000005 -0.000002 0.000001 -0.000001 -0.000001 3.329675 -18.400627 12.086220 12.758453 -13.093555 60.289998 30.367803 39.179587 -4.060857 19.207766 -1.522804 11.664512 0.339030 -1.230712 1.057876 -0.357893 1.142266 22.116021 -0.000005 -0.000003 -0.000001 0.000002 -0.000000 -0.000001 -7.074893 1.888191 -10.249914 -0.642343 -0.093877 -1.289327 0.000001 -0.000006 -0.000005 0.000001 -0.000002 -0.000001 -3.019150 2.736966 5.346086 0.120552 -1.119632 16.859796 0.000007 0.000004 0.000011 0.000001 0.000004 -0.000002 1.947052 0.243564 1.018065 -0.619907 3.110101 28.344754 0.000007 0.000006 0.000003 -0.000000 0.000002 0.000001 4.838162 -1.853396 -3.960798 -1.320399 7.677268 37.620194 -0.000009 0.000007 -0.000005 -0.000002 -0.000000 0.000002 -81.786215 -12.168112 13.602118 115.232927 8.694659 3.495721 -30.976913 3.826591 -11.832355 -0.900914 1.146358 1.370587 0.000000 -0.000002 -0.000000 -63.247552 9.614763 -23.083659 105.695190 -1.229336 -0.949004 -24.965655 -7.468771 26.321729 -9.245744 -3.068071 -0.182260 0.000001 0.000001 0.000000 
2.982349 119.929077 -2.054331 -0.239450 4.587754 -9.588550 3.910112 3.763841 -1.710792 8.034895 6.853192 -4.630685 8.034903 6.853192 -4.630674 -3.886882 28.379043 6.942596 6.249112 35.650012 -22.372095 -0.000002 0.000000 0.000000 -0.000002 0.000000 0.000000 -0.000002 0.000000 0.000000 0.976917 -15.609363 -11.916653 3.043029 -0.742991 -31.824525 40.043333 -33.239122 -2.145959 12.723030 10.470386 2.739131 1.294567 -1.112620 -9.316274 -0.178481 -0.773446 -14.430089 0.000006 0.000009 0.000004 -0.000000 0.000000 -0.000001 -10.174846 -9.647144 9.011787 2.321135 6.714514 2.170899 0.000013 -0.000001 -0.000001 0.000003 -0.000001 -0.000001 -0.859987 -6.792631 -6.390185 -0.126837 0.207662 -21.714380 0.000001 -0.000004 0.000006 -0.000000 0.000001 -0.000000 -0.558561 2.846461 -6.293526 -0.505493 -2.597468 -30.199487 -0.000003 -0.000008 -0.000003 -0.000000 0.000001 -0.000001 -0.246469 5.891025 -1.048179 -0.699255 -5.770476 -39.699290 -0.000006 -0.000007 -0.000004 -0.000001 -0.000001 0.000000 3.336413 -18.459110 12.041822 12.740225 -13.038985 60.364877 30.366195 39.076598 -4.084400 19.280963 -1.508836 11.630514 0.549341 -1.191010 1.087075 -0.357889 1.142266 22.116024 -0.000012 -0.000003 0.000001 0.000002 0.000001 -0.000002 -7.100221 1.986075 -10.230981 -0.642338 -0.093877 -1.289329 0.000004 -0.000007 -0.000004 0.000002 -0.000002 -0.000002 -2.882164 2.817729 5.308117 0.120548 -1.119632 16.859794 0.000005 0.000004 0.000012 -0.000000 0.000001 -0.000000 1.947111 0.243753 1.017799 -0.619904 3.110104 28.344754 0.000009 0.000002 0.000004 -0.000001 0.000000 -0.000001 4.837613 -1.852738 -3.961086 -1.320398 7.677269 37.620194 -0.000008 0.000005 -0.000001 -0.000003 -0.000001 0.000004 -81.807286 -12.167773 13.619847 115.242531 8.665144 3.493148 -30.992683 3.813926 -11.803696 -0.898836 1.145772 1.367329 0.000000 -0.000001 -0.000000 -63.247121 9.575355 -23.126788 105.701815 -1.229823 -0.949696 -24.980544 -7.457517 26.297444 -9.244784 -3.053156 -0.177833 -0.000000 -0.000000 -0.000000 
